<svg width="500" height="1200" viewBox="0 0 500 1200" fill="none" xmlns="http://www.w3.org/2000/svg">
<rect width="500" height="1200" fill="#D9D9D9"/>
<path d="M242.376 27.536H245.032V48.848H242.376V27.536ZM244.2 36.336H249.32V38.544H244.2V36.336ZM227.016 53.68H246.344V55.856H227.016V53.68ZM227.016 46.672H229.672V54.544H227.016V46.672ZM230.664 29.584C234.984 29.584 238.216 32.56 238.216 36.72C238.216 40.912 234.984 43.856 230.664 43.856C226.344 43.856 223.112 40.912 223.112 36.72C223.112 32.56 226.344 29.584 230.664 29.584ZM230.664 31.92C227.848 31.92 225.704 33.904 225.704 36.72C225.704 39.568 227.848 41.52 230.664 41.52C233.48 41.52 235.624 39.568 235.624 36.72C235.624 33.904 233.48 31.92 230.664 31.92ZM224.328 68.296H226.952V80.776H224.328V68.296ZM224.328 80.136H226.504C231.592 80.136 235.112 79.976 239.112 79.144L239.464 81.288C235.304 82.152 231.72 82.344 226.504 82.344H224.328V80.136ZM243.72 66.568H246.376V84.296H243.72V66.568ZM235.624 69.96H244.456V72.04H235.624V69.96ZM235.624 75.048H244.456V77.16H235.624V75.048ZM236.872 84.552C242.824 84.552 246.504 86.568 246.504 90.024C246.504 93.48 242.824 95.464 236.872 95.464C230.888 95.464 227.208 93.48 227.208 90.024C227.208 86.568 230.888 84.552 236.872 84.552ZM236.872 86.664C232.52 86.664 229.864 87.912 229.864 90.024C229.864 92.136 232.52 93.352 236.872 93.352C241.224 93.352 243.88 92.136 243.88 90.024C243.88 87.912 241.224 86.664 236.872 86.664ZM242.184 105.568H244.84V134.496H242.184V105.568ZM244.2 117.44H249.576V119.68H244.2V117.44ZM222.44 110.176H239.496V112.352H222.44V110.176ZM231.08 114.752C235.176 114.752 238.12 117.504 238.12 121.408C238.12 125.312 235.176 128.064 231.08 128.064C227.016 128.064 224.04 125.312 224.04 121.408C224.04 117.504 227.016 114.752 231.08 114.752ZM231.08 116.96C228.456 116.96 226.568 118.784 226.568 121.408C226.568 124 228.456 125.856 231.08 125.856C233.704 125.856 235.592 124 235.592 121.408C235.592 118.784 233.704 116.96 231.08 116.96ZM229.704 105.92H232.36V111.168H229.704V105.92ZM233.992 154.904H239.528V157.112H233.992V154.904ZM228.584 147.288H230.664V152.792C230.664 158.84 228.136 164.696 223.912 167.288L222.248 165.272C226.216 162.936 228.584 157.752 228.584 152.792V147.288ZM229.096 147.288H231.144V152.696C231.144 157.336 233.32 162.264 237.128 164.568L235.592 166.648C231.432 164.088 229.096 158.328 229.096 152.696V147.288ZM244.616 144.568H247.176V173.496H244.616V144.568ZM238.76 145.176H241.256V172.056H238.76V145.176ZM229 198.448H231.624V207.12H229V198.448ZM239.688 198.448H242.344V207.12H239.688V198.448ZM222.6 206.608H248.808V208.816H222.6V206.608ZM235.656 185.392C241.768 185.392 246.152 188.304 246.152 192.848C246.152 197.36 241.768 200.272 235.656 200.272C229.512 200.272 225.128 197.36 225.128 192.848C225.128 188.304 229.512 185.392 235.656 185.392ZM235.656 187.504C231.016 187.504 227.688 189.616 227.688 192.848C227.688 196.048 231.016 198.16 235.656 198.16C240.296 198.16 243.592 196.048 243.592 192.848C243.592 189.616 240.296 187.504 235.656 187.504ZM243.592 261.536H246.248V290.528H243.592V261.536ZM230.984 263.776C235.272 263.776 238.344 267.712 238.344 273.856C238.344 280.032 235.272 283.968 230.984 283.968C226.728 283.968 223.656 280.032 223.656 273.856C223.656 267.712 226.728 263.776 230.984 263.776ZM230.984 266.176C228.168 266.176 226.184 269.184 226.184 273.856C226.184 278.56 228.168 281.632 230.984 281.632C233.832 281.632 235.784 278.56 235.784 273.856C235.784 269.184 233.832 266.176 230.984 266.176ZM243.72 300.568H246.376V321.944H243.72V300.568ZM237.48 309.496H244.232V311.704H237.48V309.496ZM234.792 302.808H237.576C237.576 310.264 232.328 315.928 224.168 318.648L223.016 316.504C230.088 314.136 234.792 309.592 234.792 303.864V302.808ZM224.456 302.808H236.52V304.984H224.456V302.808ZM228.104 326.68H247.112V328.856H228.104V326.68ZM228.104 319.8H230.76V327.768H228.104V319.8ZM234.12 385.544H239.752V387.752H234.12V385.544ZM234.12 394.344H239.752V396.552H234.12V394.344ZM244.616 378.568H247.176V407.496H244.616V378.568ZM238.952 379.176H241.448V406.056H238.952V379.176ZM229.096 380.968C232.84 380.968 235.272 384.84 235.272 391.048C235.272 397.256 232.84 401.128 229.096 401.128C225.352 401.128 222.952 397.256 222.952 391.048C222.952 384.84 225.352 380.968 229.096 380.968ZM229.096 383.432C226.824 383.432 225.352 386.376 225.352 391.048C225.352 395.72 226.824 398.664 229.096 398.664C231.4 398.664 232.84 395.72 232.84 391.048C232.84 386.376 231.4 383.432 229.096 383.432ZM230.216 420.064H232.392V425.248C232.392 431.904 228.808 438.08 224.072 440.48L222.44 438.304C226.728 436.256 230.216 430.72 230.216 425.248V420.064ZM230.664 420.064H232.84V425.248C232.84 430.528 236.296 435.84 240.584 437.824L238.984 439.936C234.28 437.632 230.664 431.68 230.664 425.248V420.064ZM243.592 417.536H246.248V446.528H243.592V417.536ZM243.592 495.536H246.248V524.528H243.592V495.536ZM230.984 497.776C235.272 497.776 238.344 501.712 238.344 507.856C238.344 514.032 235.272 517.968 230.984 517.968C226.728 517.968 223.656 514.032 223.656 507.856C223.656 501.712 226.728 497.776 230.984 497.776ZM230.984 500.176C228.168 500.176 226.184 503.184 226.184 507.856C226.184 512.56 228.168 515.632 230.984 515.632C233.832 515.632 235.784 512.56 235.784 507.856C235.784 503.184 233.832 500.176 230.984 500.176ZM224.232 537.384H237.544V556.232H224.232V537.384ZM234.952 539.528H226.824V554.088H234.952V539.528ZM243.592 534.536H246.248V563.528H243.592V534.536ZM230.248 577.696H232.392V582.4C232.392 588.512 228.712 594.656 224.104 596.928L222.568 594.816C226.76 592.832 230.248 587.392 230.248 582.4V577.696ZM230.76 577.696H232.904V582.4C232.904 587.296 236.392 592.288 240.648 594.112L239.144 596.224C234.472 594.048 230.76 588.416 230.76 582.4V577.696ZM223.528 576.512H239.688V578.752H223.528V576.512ZM243.592 573.568H246.248V602.496H243.592V573.568ZM243.624 651.568H246.312V667.088H243.624V651.568ZM227.656 668.528H230.28V672.048H243.688V668.528H246.312V680.112H227.656V668.528ZM230.28 674.16V677.968H243.688V674.16H230.28ZM230.792 652.944C235.176 652.944 238.312 655.664 238.312 659.6C238.312 663.568 235.176 666.288 230.792 666.288C226.408 666.288 223.24 663.568 223.24 659.6C223.24 655.664 226.408 652.944 230.792 652.944ZM230.792 655.152C227.912 655.152 225.832 656.976 225.832 659.6C225.832 662.224 227.912 664.048 230.792 664.048C233.672 664.048 235.752 662.224 235.752 659.6C235.752 656.976 233.672 655.152 230.792 655.152ZM243.624 690.568H246.28V719.496H243.624V690.568ZM224.424 693.384H227.048V711.304H224.424V693.384ZM224.424 709.736H226.792C231.176 709.736 235.752 709.416 240.648 708.392L240.968 710.664C235.944 711.688 231.368 712.04 226.792 712.04H224.424V709.736ZM242.152 729.536H244.84V758.528H242.152V729.536ZM244.2 740.96H249.576V743.2H244.2V740.96ZM223.816 749.088H226.088C231.432 749.088 235.176 748.896 239.496 748.096L239.784 750.336C235.336 751.168 231.528 751.328 226.088 751.328H223.816V749.088ZM223.816 732.352H237.256V734.528H226.44V750.08H223.816V732.352ZM242.376 807.536H245.032V828.848H242.376V807.536ZM244.2 816.336H249.32V818.544H244.2V816.336ZM227.016 833.68H246.344V835.856H227.016V833.68ZM227.016 826.672H229.672V834.544H227.016V826.672ZM230.664 809.584C234.984 809.584 238.216 812.56 238.216 816.72C238.216 820.912 234.984 823.856 230.664 823.856C226.344 823.856 223.112 820.912 223.112 816.72C223.112 812.56 226.344 809.584 230.664 809.584ZM230.664 811.92C227.848 811.92 225.704 813.904 225.704 816.72C225.704 819.568 227.848 821.52 230.664 821.52C233.48 821.52 235.624 819.568 235.624 816.72C235.624 813.904 233.48 811.92 230.664 811.92ZM224.328 848.296H226.952V860.776H224.328V848.296ZM224.328 860.136H226.504C231.592 860.136 235.112 859.976 239.112 859.144L239.464 861.288C235.304 862.152 231.72 862.344 226.504 862.344H224.328V860.136ZM243.72 846.568H246.376V864.296H243.72V846.568ZM235.624 849.96H244.456V852.04H235.624V849.96ZM235.624 855.048H244.456V857.16H235.624V855.048ZM236.872 864.552C242.824 864.552 246.504 866.568 246.504 870.024C246.504 873.48 242.824 875.464 236.872 875.464C230.888 875.464 227.208 873.48 227.208 870.024C227.208 866.568 230.888 864.552 236.872 864.552ZM236.872 866.664C232.52 866.664 229.864 867.912 229.864 870.024C229.864 872.136 232.52 873.352 236.872 873.352C241.224 873.352 243.88 872.136 243.88 870.024C243.88 867.912 241.224 866.664 236.872 866.664ZM242.184 885.568H244.84V914.496H242.184V885.568ZM244.2 897.44H249.576V899.68H244.2V897.44ZM222.44 890.176H239.496V892.352H222.44V890.176ZM231.08 894.752C235.176 894.752 238.12 897.504 238.12 901.408C238.12 905.312 235.176 908.064 231.08 908.064C227.016 908.064 224.04 905.312 224.04 901.408C224.04 897.504 227.016 894.752 231.08 894.752ZM231.08 896.96C228.456 896.96 226.568 898.784 226.568 901.408C226.568 904 228.456 905.856 231.08 905.856C233.704 905.856 235.592 904 235.592 901.408C235.592 898.784 233.704 896.96 231.08 896.96ZM229.704 885.92H232.36V891.168H229.704V885.92ZM233.992 934.904H239.528V937.112H233.992V934.904ZM228.584 927.288H230.664V932.792C230.664 938.84 228.136 944.696 223.912 947.288L222.248 945.272C226.216 942.936 228.584 937.752 228.584 932.792V927.288ZM229.096 927.288H231.144V932.696C231.144 937.336 233.32 942.264 237.128 944.568L235.592 946.648C231.432 944.088 229.096 938.328 229.096 932.696V927.288ZM244.616 924.568H247.176V953.496H244.616V924.568ZM238.76 925.176H241.256V952.056H238.76V925.176ZM229 978.448H231.624V987.12H229V978.448ZM239.688 978.448H242.344V987.12H239.688V978.448ZM222.6 986.608H248.808V988.816H222.6V986.608ZM235.656 965.392C241.768 965.392 246.152 968.304 246.152 972.848C246.152 977.36 241.768 980.272 235.656 980.272C229.512 980.272 225.128 977.36 225.128 972.848C225.128 968.304 229.512 965.392 235.656 965.392ZM235.656 967.504C231.016 967.504 227.688 969.616 227.688 972.848C227.688 976.048 231.016 978.16 235.656 978.16C240.296 978.16 243.592 976.048 243.592 972.848C243.592 969.616 240.296 967.504 235.656 967.504ZM243.592 1041.54H246.248V1070.53H243.592V1041.54ZM230.984 1043.78C235.272 1043.78 238.344 1047.71 238.344 1053.86C238.344 1060.03 235.272 1063.97 230.984 1063.97C226.728 1063.97 223.656 1060.03 223.656 1053.86C223.656 1047.71 226.728 1043.78 230.984 1043.78ZM230.984 1046.18C228.168 1046.18 226.184 1049.18 226.184 1053.86C226.184 1058.56 228.168 1061.63 230.984 1061.63C233.832 1061.63 235.784 1058.56 235.784 1053.86C235.784 1049.18 233.832 1046.18 230.984 1046.18ZM243.72 1080.57H246.376V1101.94H243.72V1080.57ZM237.48 1089.5H244.232V1091.7H237.48V1089.5ZM234.792 1082.81H237.576C237.576 1090.26 232.328 1095.93 224.168 1098.65L223.016 1096.5C230.088 1094.14 234.792 1089.59 234.792 1083.86V1082.81ZM224.456 1082.81H236.52V1084.98H224.456V1082.81ZM228.104 1106.68H247.112V1108.86H228.104V1106.68ZM228.104 1099.8H230.76V1107.77H228.104V1099.8ZM234.12 1165.54H239.752V1167.75H234.12V1165.54ZM234.12 1174.34H239.752V1176.55H234.12V1174.34ZM244.616 1158.57H247.176V1187.5H244.616V1158.57ZM238.952 1159.18H241.448V1186.06H238.952V1159.18ZM229.096 1160.97C232.84 1160.97 235.272 1164.84 235.272 1171.05C235.272 1177.26 232.84 1181.13 229.096 1181.13C225.352 1181.13 222.952 1177.26 222.952 1171.05C222.952 1164.84 225.352 1160.97 229.096 1160.97ZM229.096 1163.43C226.824 1163.43 225.352 1166.38 225.352 1171.05C225.352 1175.72 226.824 1178.66 229.096 1178.66C231.4 1178.66 232.84 1175.72 232.84 1171.05C232.84 1166.38 231.4 1163.43 229.096 1163.43Z" fill="#040404"/>
</svg>
