<svg width="125" height="32" viewBox="0 0 125 32" fill="none" xmlns="http://www.w3.org/2000/svg">
<path d="M26.2844 14.1439C26.6969 13.3457 27.0091 12.1168 26.6349 10.3797C26.0252 7.5498 23.8059 6.72118 22.1288 6.6436C22.0612 6.20737 21.9383 5.6632 21.7219 5.05269C21.0908 3.2774 19.718 1.76857 17.9541 0.911837C17.3511 0.619514 16.6883 0.389029 15.9839 0.228252C14.5435 -0.101173 13.1358 -0.074189 11.6807 0.310327C10.5299 0.615017 9.51216 1.10634 8.65783 1.76969C7.56004 2.62305 6.73614 3.75748 6.27628 5.05269C6.05876 5.6632 5.93703 6.20737 5.86941 6.6436C4.19342 6.72118 1.97418 7.55093 1.3633 10.3797C0.989107 12.1168 1.30131 13.3457 1.71383 14.1439C0.76707 14.8253 -0.133474 16.0541 0.0164286 18.0026C0.169713 19.987 1.40388 21.1192 2.56478 21.6847C2.43629 22.1996 2.41488 22.7798 2.48025 23.3296C2.68425 25.0543 3.87784 27.141 6.57158 27.3456C9.39269 27.5593 10.2718 30.3858 10.5232 31.6259H12.5654C12.233 29.3829 10.681 25.6299 6.72149 25.3309C5.77022 25.2589 5.0996 24.8148 4.72766 24.0098C4.47294 23.46 4.42673 22.8945 4.46167 22.4897C4.43575 22.4031 4.41997 22.3155 4.41208 22.2278C4.40419 22.1794 4.39968 22.1322 4.39743 22.0838C4.3963 22.0838 4.39517 22.085 4.39405 22.085L4.234 20.1242C4.02211 20.0904 2.16466 19.7453 2.01814 17.8463C1.87838 16.0305 3.22863 15.5561 3.49012 15.4819L3.84515 13.6964C3.8057 13.6638 2.87698 12.8858 3.32556 10.8069C3.85642 8.34582 6.35405 8.65051 6.63132 8.69211L7.79335 7.65324C7.79335 7.64537 7.77193 6.84036 8.16529 5.73066C8.49552 4.80085 9.0895 3.98347 9.88297 3.36734C10.5232 2.86927 11.2997 2.49825 12.1901 2.26214C13.3409 1.95745 14.4049 1.93721 15.5387 2.19581C16.0955 2.32285 16.6151 2.50274 17.0817 2.72986C18.3745 3.35723 19.3764 4.45119 19.8307 5.73066C20.2251 6.84036 20.2037 7.64537 20.2037 7.64649L21.3613 8.69323C21.6442 8.65163 24.1418 8.34582 24.6726 10.8069C25.1212 12.8858 24.1925 13.6638 24.1745 13.6807L24.4979 15.4785C24.7696 15.5549 26.1198 16.0305 25.9801 17.8463C25.8335 19.7453 23.975 20.0904 23.771 20.123C23.7157 20.7763 23.6594 21.4295 23.6053 22.0838C23.6042 22.0838 23.603 22.0827 23.603 22.0827C23.6053 22.1333 23.6008 22.1817 23.5951 22.2311C23.5816 22.3368 23.5658 22.411 23.5501 22.4953C23.6042 23.0092 23.4712 23.5769 23.2717 24.0098C22.8997 24.8148 22.2291 25.2589 21.2778 25.3309C17.6926 25.6018 16.2837 28.2631 15.9084 30.2239H14.7903V6.19388H12.7841V31.6259C12.8044 31.6248 12.8258 31.6237 12.8461 31.6237H17.8109C17.8492 30.9435 18.1998 27.5896 21.4289 27.3456C24.1226 27.1421 25.3162 25.0554 25.5202 23.3296C25.5856 22.7798 25.563 22.2008 25.4357 21.6847C26.5977 21.1192 27.8319 19.987 27.984 18.0026C28.1317 16.0541 27.2311 14.8253 26.2844 14.1439Z" fill="#A8A8A8"/>
<path d="M14.6077 25.2064C14.3755 25.2064 14.1377 25.1975 13.8943 25.1806C10.5197 24.9411 8.02212 22.7183 7.81812 19.7771L10.1534 19.6163C10.2943 21.6581 12.2769 22.724 14.0599 22.851C15.151 22.9286 17.0715 22.842 17.67 21.386C17.8977 20.8329 17.8999 20.2853 17.6756 19.7591C17.3837 19.0733 16.7097 18.4662 15.8734 18.1356C15.0089 17.7938 14.247 17.5948 13.44 17.3835C12.7773 17.2103 12.0932 17.0315 11.3324 16.7673C9.37913 16.0894 8.32305 14.5232 8.35912 12.3578C8.3873 10.6342 9.29686 9.1602 10.8545 8.31134C12.7412 7.28372 15.1589 7.36129 17.0152 8.5081C18.1513 9.20967 20.0346 10.9389 19.8926 14.63L17.5528 14.5401C17.6261 12.6535 17.0129 11.2537 15.7821 10.4925C14.6483 9.79207 13.1188 9.73922 11.9771 10.361C11.4056 10.6724 10.7192 11.2784 10.7012 12.396C10.6821 13.5664 11.1013 14.214 12.1033 14.5614C12.7773 14.7953 13.3882 14.9549 14.0351 15.1236C14.8737 15.3428 15.7416 15.5699 16.7379 15.9634C18.1637 16.5278 19.2919 17.578 19.8318 18.8439C20.3029 19.9491 20.3051 21.1342 19.8385 22.2709C19.062 24.1586 17.1752 25.2064 14.6077 25.2064Z" fill="#A8A8A8"/>
<path d="M56.59 28.4H52.93V3.5H56.59V28.4ZM41.2 3.5H44.86L42.7 12.62H46.36C46.7 12.62 46.98 12.71 47.2 12.89C47.42 13.07 47.57 13.31 47.65 13.61L51.28 28.1H47.65L44.62 16.1C44.56 15.9 44.42 15.8 44.2 15.8H41.98L39.07 28.1H35.41L41.2 3.5ZM82.3853 16.16H61.2053V13.1H76.9253L77.6453 6.86H61.8053V3.8H81.6353L80.5553 13.1H82.3853V16.16ZM61.9553 18.74H81.6353V28.4H61.9553V18.74ZM78.1253 25.46V21.68H65.4653V25.46H78.1253ZM91.9206 4.97V2.33H95.5806V4.97H100.801V8.03H95.0106L93.3606 14.36H96.7506C97.4506 14.36 97.8806 14.68 98.0406 15.32L101.401 28.07H97.7406L95.0106 17.69C94.9506 17.51 94.8106 17.42 94.5906 17.42H92.5506L89.7606 28.07H86.1006L91.3506 8.03H86.7006V4.97H91.9206ZM103.321 3.5H106.981V28.37H103.321V3.5Z" fill="#A8A8A8"/>
</svg>
