<svg width="83" height="83" viewBox="0 0 83 83" fill="none" xmlns="http://www.w3.org/2000/svg">
<g filter="url(#filter0_di_638_963)">
<circle cx="41.5" cy="37.5" r="37.5" fill="#3E3E3E"/>
</g>
<path d="M62.1815 34.2364C62.8592 32.925 63.3721 30.9061 62.7573 28.0524C61.7556 23.4032 58.1097 22.0419 55.3545 21.9145C55.2434 21.1978 55.0415 20.3038 54.686 19.3009C53.6491 16.3843 51.3938 13.9055 48.496 12.498C47.5053 12.0178 46.4166 11.6391 45.2593 11.375C42.8929 10.8338 40.5802 10.8781 38.1897 11.5098C36.2992 12.0104 34.6271 12.8176 33.2236 13.9073C31.4201 15.3093 30.0665 17.173 29.311 19.3009C28.9537 20.3038 28.7537 21.1978 28.6426 21.9145C25.8892 22.0419 22.2433 23.4051 21.2397 28.0524C20.625 30.9061 21.1379 32.925 21.8156 34.2364C20.2602 35.3558 18.7807 37.3746 19.027 40.5757C19.2788 43.8358 21.3064 45.6958 23.2136 46.6249C23.0025 47.4708 22.9673 48.4239 23.0747 49.3272C23.4098 52.1606 25.3707 55.5888 29.7962 55.925C34.4308 56.2759 35.8751 60.9195 36.288 62.9569H39.6432C39.097 59.2719 36.5473 53.1063 30.0424 52.615C28.4796 52.4968 27.3779 51.7672 26.7669 50.4447C26.3484 49.5414 26.2725 48.6124 26.3299 47.9474C26.2873 47.8052 26.2614 47.6611 26.2484 47.517C26.2355 47.4376 26.228 47.36 26.2243 47.2806C26.2225 47.2806 26.2206 47.2824 26.2188 47.2824L25.9559 44.0611C25.6077 44.0057 22.5562 43.4386 22.3155 40.3189C22.0859 37.3359 24.3042 36.5564 24.7338 36.4345L25.317 33.5013C25.2522 33.4477 23.7265 32.1695 24.4634 28.7543C25.3356 24.711 29.4388 25.2115 29.8943 25.2799L31.8034 23.5732C31.8034 23.5602 31.7682 22.2377 32.4144 20.4147C32.9569 18.8871 33.9328 17.5443 35.2363 16.5321C36.288 15.7138 37.5638 15.1043 39.0266 14.7164C40.9172 14.2158 42.6651 14.1826 44.5279 14.6074C45.4426 14.8161 46.2962 15.1117 47.0628 15.4848C49.1866 16.5154 50.8327 18.3127 51.5789 20.4147C52.227 22.2377 52.1918 23.5603 52.1918 23.5621L54.0935 25.2817C54.5582 25.2134 58.6615 24.711 59.5336 28.7543C60.2706 32.1695 58.7448 33.4477 58.7152 33.4754L59.2466 36.4289C59.6929 36.5545 61.9111 37.3359 61.6815 40.3189C61.4408 43.4386 58.3875 44.0057 58.0523 44.0593C57.9616 45.1324 57.869 46.2056 57.7801 47.2806C57.7783 47.2806 57.7764 47.2788 57.7764 47.2788C57.7801 47.3619 57.7727 47.4413 57.7635 47.5226C57.7412 47.6962 57.7153 47.8181 57.6894 47.9566C57.7783 48.8008 57.5598 49.7335 57.232 50.4447C56.621 51.7672 55.5193 52.4968 53.9565 52.615C48.0664 53.0601 45.7518 57.4322 45.1352 60.6535H43.2984V21.1757H40.0025V62.9569C40.0358 62.955 40.071 62.9532 40.1043 62.9532H48.2608C48.3238 61.8357 48.8996 56.3258 54.2046 55.925C58.63 55.5907 60.5909 52.1625 60.9261 49.3272C61.0335 48.4239 60.9964 47.4727 60.7872 46.6249C62.6962 45.6958 64.7238 43.8358 64.9738 40.5757C65.2163 37.3746 63.7369 35.3558 62.1815 34.2364Z" fill="#EBFF00"/>
<path d="M42.9984 52.4108C42.617 52.4108 42.2263 52.396 41.8263 52.3683C36.2825 51.9748 32.1793 48.3231 31.8441 43.4911L35.6807 43.227C35.9122 46.5813 39.1692 48.3324 42.0985 48.5411C43.8909 48.6685 47.0461 48.5263 48.0294 46.1343C48.4034 45.2256 48.4071 44.326 48.0386 43.4616C47.559 42.3349 46.4518 41.3374 45.0778 40.7944C43.6576 40.2329 42.4059 39.9059 41.0801 39.5587C39.9914 39.2742 38.8674 38.9805 37.6176 38.5465C34.4086 37.4327 32.6737 34.8597 32.7329 31.3022C32.7792 28.4706 34.2735 26.0491 36.8325 24.6545C39.9321 22.9663 43.9039 23.0937 46.9536 24.9777C48.82 26.1303 51.9141 28.9712 51.6808 35.0352L47.8368 34.8874C47.9572 31.788 46.9499 29.4883 44.9279 28.2379C43.0651 27.0871 40.5524 27.0003 38.6767 28.0218C37.7379 28.5334 36.6103 29.529 36.5806 31.365C36.5492 33.2878 37.238 34.3517 38.8841 34.9225C39.9914 35.3067 40.995 35.569 42.0578 35.846C43.4354 36.2062 44.8612 36.5793 46.4981 37.2258C48.8404 38.153 50.6939 39.8782 51.5808 41.9581C52.3548 43.7737 52.3585 45.7206 51.5919 47.588C50.3162 50.6893 47.2165 52.4108 42.9984 52.4108Z" fill="#EBFF00"/>
<defs>
<filter id="filter0_di_638_963" x="0" y="-4" width="83" height="87" filterUnits="userSpaceOnUse" color-interpolation-filters="sRGB">
<feFlood flood-opacity="0" result="BackgroundImageFix"/>
<feColorMatrix in="SourceAlpha" type="matrix" values="0 0 0 0 0 0 0 0 0 0 0 0 0 0 0 0 0 0 127 0" result="hardAlpha"/>
<feOffset dy="4"/>
<feGaussianBlur stdDeviation="2"/>
<feComposite in2="hardAlpha" operator="out"/>
<feColorMatrix type="matrix" values="0 0 0 0 0 0 0 0 0 0 0 0 0 0 0 0 0 0 0.25 0"/>
<feBlend mode="normal" in2="BackgroundImageFix" result="effect1_dropShadow_638_963"/>
<feBlend mode="normal" in="SourceGraphic" in2="effect1_dropShadow_638_963" result="shape"/>
<feColorMatrix in="SourceAlpha" type="matrix" values="0 0 0 0 0 0 0 0 0 0 0 0 0 0 0 0 0 0 127 0" result="hardAlpha"/>
<feOffset dx="8" dy="-7"/>
<feGaussianBlur stdDeviation="2"/>
<feComposite in2="hardAlpha" operator="arithmetic" k2="-1" k3="1"/>
<feColorMatrix type="matrix" values="0 0 0 0 0 0 0 0 0 0 0 0 0 0 0 0 0 0 0.25 0"/>
<feBlend mode="normal" in2="shape" result="effect2_innerShadow_638_963"/>
</filter>
</defs>
</svg>
