<svg width="150" height="275" viewBox="0 0 275 275" fill="none" xmlns="http://www.w3.org/2000/svg">
    <circle cx="137.5" cy="137.5" r="137.5" fill="#D9D9D9"/>
    <path d="M142.677 121.871C149.644 121.871 156.455 119.805 162.248 115.934C168.04 112.064 172.555 106.562 175.221 100.125C177.888 93.6888 178.585 86.606 177.226 79.7729C175.867 72.9398 172.512 66.6632 167.586 61.7368C162.659 56.8104 156.382 53.4554 149.549 52.0962C142.716 50.737 135.634 51.4346 129.197 54.1008C122.76 56.7669 117.259 61.2819 113.388 67.0748C109.517 72.8676 107.451 79.6781 107.451 86.6451C107.451 95.9876 111.163 104.947 117.769 111.553C124.375 118.16 133.335 121.871 142.677 121.871Z" fill="#231F20"/>
    <path d="M195.516 209.936C197.851 209.936 200.091 209.008 201.743 207.356C203.395 205.705 204.322 203.465 204.322 201.129C204.322 184.78 197.828 169.1 186.267 157.54C174.706 145.979 159.027 139.484 142.677 139.484C126.328 139.484 110.648 145.979 99.0876 157.54C87.527 169.1 81.0322 184.78 81.0322 201.129C81.0322 203.465 81.96 205.705 83.6116 207.356C85.2631 209.008 87.503 209.936 89.8387 209.936H195.516Z" fill="#231F20"/>
</svg>
